HIERARCHY
ROOT Hips
{
	OFFSET 0.00000 0.00000 0.00000
	CHANNELS 6 Xposition Yposition Zposition Zrotation Yrotation Xrotation 
	JOINT LHipJoint
	{
		OFFSET 0 0 0
		CHANNELS 3 Zrotation Yrotation Xrotation
		JOINT LeftUpLeg
		{
			OFFSET 1.55766 -1.60504 1.11378
			CHANNELS 3 Zrotation Yrotation Xrotation
			JOINT LeftLeg
			{
				OFFSET 2.29047 -6.29302 0.00000
				CHANNELS 3 Zrotation Yrotation Xrotation
				JOINT LeftFoot
				{
					OFFSET 2.52265 -6.93093 0.00000
					CHANNELS 3 Zrotation Yrotation Xrotation
					JOINT LeftToeBase
					{
						OFFSET 0.17633 -0.48446 2.02656
						CHANNELS 3 Zrotation Yrotation Xrotation
						End Site
						{
							OFFSET 0.00000 -0.00000 1.04989
						}
					}
				}
			}
		}
	}
	JOINT RHipJoint
	{
		OFFSET 0 0 0
		CHANNELS 3 Zrotation Yrotation Xrotation
		JOINT RightUpLeg
		{
			OFFSET -1.48599 -1.60504 1.11378
			CHANNELS 3 Zrotation Yrotation Xrotation
			JOINT RightLeg
			{
				OFFSET -2.27280 -6.24448 0.00000
				CHANNELS 3 Zrotation Yrotation Xrotation
				JOINT RightFoot
				{
					OFFSET -2.50834 -6.89161 0.00000
					CHANNELS 3 Zrotation Yrotation Xrotation
					JOINT RightToeBase
					{
						OFFSET -0.26967 -0.74090 2.08741
						CHANNELS 3 Zrotation Yrotation Xrotation
						End Site
						{
							OFFSET -0.00000 -0.00000 1.10614
						}
					}
				}
			}
		}
	}
	JOINT LowerBack
	{
		OFFSET 0 0 0
		CHANNELS 3 Zrotation Yrotation Xrotation
		JOINT Spine
		{
			OFFSET 0.06481 2.02437 -0.08472
			CHANNELS 3 Zrotation Yrotation Xrotation
			JOINT Spine1
			{
				OFFSET 0.00015 1.96711 0.18069
				CHANNELS 3 Zrotation Yrotation Xrotation
				JOINT Neck
				{
					OFFSET 0 0 0
					CHANNELS 3 Zrotation Yrotation Xrotation
					JOINT Neck1
					{
						OFFSET -0.29961 1.68293 -0.13041
						CHANNELS 3 Zrotation Yrotation Xrotation
						JOINT Head
						{
							OFFSET 0.59697 1.61501 -0.14669
							CHANNELS 3 Zrotation Yrotation Xrotation
							End Site
							{
								OFFSET 0.22973 1.74906 -0.10148
							}
						}
					}
				}
				JOINT LeftShoulder
				{
					OFFSET 0 0 0
					CHANNELS 3 Zrotation Yrotation Xrotation
					JOINT LeftArm
					{
						OFFSET 3.37968 1.02893 0.31147
						CHANNELS 3 Zrotation Yrotation Xrotation
						JOINT LeftForeArm
						{
							OFFSET 5.19807 -0.00000 -0.00000
							CHANNELS 3 Zrotation Yrotation Xrotation
							JOINT LeftHand
							{
								OFFSET 3.09370 -0.00000 -0.00000
								CHANNELS 3 Zrotation Yrotation Xrotation
								JOINT LeftFingerBase
								{
									OFFSET 0 0 0
									CHANNELS 3 Zrotation Yrotation Xrotation
									JOINT LeftHandIndex1
									{
										OFFSET 0.67263 -0.00000 -0.00000
										CHANNELS 3 Zrotation Yrotation Xrotation
										End Site
										{
											OFFSET 0.54229 -0.00000 -0.00000
										}
									}
								}
								JOINT LThumb
								{
									OFFSET 0 0 0
									CHANNELS 3 Zrotation Yrotation Xrotation
									End Site
									{
										OFFSET 0.55057 -0.00000 0.55057
									}
								}
							}
						}
					}
				}
				JOINT RightShoulder
				{
					OFFSET 0 0 0
					CHANNELS 3 Zrotation Yrotation Xrotation
					JOINT RightArm
					{
						OFFSET -3.38254 0.96355 -0.16120
						CHANNELS 3 Zrotation Yrotation Xrotation
						JOINT RightForeArm
						{
							OFFSET -5.45222 -0.00000 -0.00000
							CHANNELS 3 Zrotation Yrotation Xrotation
							JOINT RightHand
							{
								OFFSET -3.01284 -0.00000 -0.00000
								CHANNELS 3 Zrotation Yrotation Xrotation
								JOINT RightFingerBase
								{
									OFFSET 0 0 0
									CHANNELS 3 Zrotation Yrotation Xrotation
									JOINT RightHandIndex1
									{
										OFFSET -0.62230 -0.00000 -0.00000
										CHANNELS 3 Zrotation Yrotation Xrotation
										End Site
										{
											OFFSET -0.50171 -0.00000 -0.00000
										}
									}
								}
								JOINT RThumb
								{
									OFFSET 0 0 0
									CHANNELS 3 Zrotation Yrotation Xrotation
									End Site
									{
										OFFSET -0.50937 -0.00000 0.50937
									}
								}
							}
						}
					}
				}
			}
		}
	}
}
MOTION
Frames: 15
Frame Time: 0.133333
0.00 0.00 0.00 0 0 0 0 0 0 -21 0 0 0 0 0 0 0 0 0 0 0 0 0 0 21 0 0 0 0 0 0 0 0 0 0 0 0 0 0 0 0 0 0 0 0 0 0 -16 0 0 21 0 0 11 0 0 0 -8 0 0 0 0 0 0 0 0 0 0 0 0 0 0 0 0 0 0 0 0 8 0 0 0 0 0 0 0 0 0 0 0 0 0 0 0 0 0
0.00 0.00 0.00 -7.5165 22.1171 11.8579 0.0000 0.0000 0.0000 -15.7898 -1.0503 -37.4326 5.0880 13.4822 41.2016 0.7475 3.2718 -17.8380 0.9947 -6.3472 -17.7952 0.0000 0.0000 0.0000 27.8899 -5.6150 -24.0979 -2.1453 -9.1624 26.3045 -0.8702 13.7890 -17.9961 -0.9121 6.0855 -17.0326 10.7062 2.1890 -8.1681 -0.4248 2.5591 -9.2976 -6.3421 0.6899 -4.8432 -29.0466 -7.6190 5.9593 36.1724 -14.5885 6.6026 17.8277 -7.7741 6.2332 0.0000 -0.0000 0.0000 -69.1880 2.9629 35.8884 61.9340 -56.8037 -35.9550 -0.0000 0.0000 -61.6136 21.1907 13.9879 5.3536 -7.1250 0.0000 -0.0000 -5.8104 44.8589 0.0203 0.0000 -0.0000 0.0000 70.3331 7.7194 40.2009 -47.9925 52.1531 -24.5798 0.0000 -0.0000 -16.7534 -12.2513 -31.2588 6.4288 7.1250 -0.0000 -0.0000 22.5603 -60.3916 -8.7287
0.00 0.00 0.00 -3.8697 32.7816 11.5834 0.0000 0.0000 0.0000 -25.2900 -0.0587 -30.0215 4.0535 12.2313 36.5550 1.1577 1.0389 -20.7338 0.0605 -1.5876 -4.3672 0.0000 0.0000 0.0000 20.8185 1.0785 -23.5098 -5.4504 -13.8737 42.7340 -1.0046 -2.9379 -20.2074 -3.5490 11.5348 -34.1054 5.4670 2.7582 -7.2952 -1.9004 3.5870 -9.1814 -4.9449 1.4765 -5.0903 -28.3387 -5.0810 1.6345 37.1215 -9.4485 6.4651 18.7301 -4.7272 5.0610 -0.0000 0.0000 0.0000 -70.3632 6.4124 37.4708 61.2055 -56.6227 -35.3459 -0.0000 0.0000 -59.3347 22.3022 13.1904 5.3471 -7.1250 0.0000 -0.0000 -4.6455 44.1456 0.0982 -0.0000 0.0000 0.0000 72.8166 2.9319 37.5681 -47.2586 51.8282 -24.0015 0.0000 -0.0000 -15.0821 -14.1681 -29.4591 7.0773 7.1250 -0.0000 -0.0000 19.1594 -59.1651 -6.7856
0.00 0.00 0.00 -2.4039 37.8513 12.6019 0.0000 0.0000 0.0000 -27.7005 -0.9918 -27.6291 3.5667 11.5604 34.1939 1.1356 -2.1602 -19.5408 0.0216 -0.9494 -2.6096 0.0000 0.0000 0.0000 16.7075 4.3232 -32.9273 -10.1533 -17.4952 59.9996 -0.0673 -4.5573 -8.5387 -3.3536 11.2466 -33.1162 4.6284 2.6626 -6.1888 -2.1816 3.5390 -9.0090 -4.8251 1.4855 -5.5481 -28.9251 -4.9094 0.6427 36.6526 -8.8134 6.3302 18.6247 -4.3351 4.9718 -0.0000 -0.0000 0.0000 -71.2218 6.3000 37.1725 61.9534 -56.8084 -35.9712 -0.0000 0.0000 -58.9354 22.2741 12.9247 5.2346 -7.1250 0.0000 -0.0000 -4.6256 43.8591 0.1305 -0.0000 -0.0000 0.0000 72.4337 2.7029 36.8657 -47.5993 51.9802 -24.2697 0.0000 -0.0000 -14.8935 -14.5675 -28.4901 7.0665 7.1250 -0.0000 -0.0000 18.0716 -58.3371 -6.0224
0.00 0.00 0.00 2.8898 72.3216 18.1157 0.0000 0.0000 0.0000 -28.2744 -7.2556 -13.9222 2.1336 9.1390 26.2310 -1.2535 -23.8290 -6.1236 0.3035 3.5421 9.7918 0.0000 0.0000 0.0000 6.3913 25.4280 -45.4484 -3.3916 -11.3035 33.3104 -0.3982 5.3895 -11.2896 -2.9281 10.5777 -30.8686 1.8432 0.2356 -3.5604 -1.6087 0.4555 -7.8077 -2.7261 0.1529 -6.0944 -30.3197 -4.8280 -0.3004 35.6730 -8.1992 6.7635 18.4677 -3.9290 5.0510 -0.0000 -0.0000 0.0000 -71.8416 3.9209 39.3735 64.7421 -57.4466 -38.3135 -0.0000 0.0000 -59.2219 22.3950 12.5203 5.1047 -7.1250 0.0000 -0.0000 -4.4487 43.4411 0.1715 -0.0000 -0.0000 0.0000 69.9595 1.1931 35.2963 -51.5349 53.5961 -27.4048 0.0000 -0.0000 -15.9598 -18.8403 -27.8809 9.0659 7.1250 -0.0000 -0.0000 13.1676 -58.6982 -4.4589
0.00 0.00 0.00 169.5450 86.6757 182.5180 0.0000 0.0000 0.0000 -25.9203 -14.4909 -2.4214 3.1455 10.9270 32.0339 -2.5673 -27.0137 9.0655 1.6474 8.0895 22.9861 0.0000 0.0000 0.0000 3.8550 31.2664 -38.2553 -1.9181 -8.6933 24.8406 1.7731 23.6202 2.2330 -1.6306 8.0500 -22.8661 2.8116 0.2090 -4.7739 -1.1650 0.4884 -7.7177 -2.7964 0.1753 -5.3114 -30.0870 -5.1031 0.1200 34.5710 -9.2156 10.8627 18.0557 -4.3653 6.4430 -0.0000 -0.0000 0.0000 -73.9781 5.1861 40.0301 62.7493 -56.9991 -36.6379 -0.0000 0.0000 -58.6603 22.8455 12.2465 5.1066 -7.1250 0.0000 -0.0000 -3.9978 43.1979 0.1781 -0.0000 -0.0000 0.0000 68.1529 0.3086 36.1861 -49.6541 52.8550 -25.8982 0.0000 -0.0000 -15.6616 -19.3929 -28.2422 9.4571 7.1250 -0.0000 -0.0000 12.7861 -59.1815 -4.4756
0.00 0.00 0.00 195.0020 79.6531 207.0130 0.0000 0.0000 0.0000 -21.3532 -14.8181 -6.3775 6.0328 14.4601 45.1134 -0.0600 -15.6482 21.5918 2.7706 10.3140 29.9997 0.0000 0.0000 0.0000 9.9140 29.0503 -35.1055 -2.8723 -10.4853 30.5632 1.2221 21.6082 -2.7701 -1.2632 7.1244 -20.0844 6.4456 0.8636 -4.8432 -0.6911 1.3915 -7.9540 -4.3438 0.4520 -5.4514 -29.5213 -5.3226 -0.6799 34.0923 -9.4229 11.9594 17.7290 -4.3419 6.9474 -0.0000 -0.0000 0.0000 -74.5006 7.2670 38.9185 62.8761 -57.0289 -36.7443 -0.0000 0.0000 -57.8407 22.8251 11.3664 4.7417 -7.1250 0.0000 -0.0000 -3.8857 42.2513 0.2640 -0.0000 -0.0000 0.0000 69.6254 -0.6604 35.8602 -49.0322 52.5976 -25.4033 0.0000 -0.0000 -14.4084 -19.9150 -27.6252 9.5360 7.1250 -0.0000 -0.0000 11.8625 -58.6872 -4.0054
0.00 0.00 0.00 197.3750 67.9226 209.0480 0.0000 0.0000 0.0000 -12.7225 -14.3070 -22.5993 11.1967 18.0300 63.4187 0.9665 -10.9622 25.5456 0.3794 3.9556 10.9518 0.0000 0.0000 0.0000 18.5111 20.3668 -28.0282 -2.4681 -9.7797 28.2662 0.5790 19.9402 -8.5779 -1.0211 6.4283 -18.0324 9.6052 1.2328 -2.4013 0.3598 2.2397 -8.1322 -5.0839 0.6730 -6.9475 -29.9488 -5.5819 -2.0973 34.1757 -9.1819 10.9616 17.7821 -4.1157 6.8882 -0.0000 -0.0000 0.0000 -75.5299 6.8007 37.6760 61.9863 -56.8164 -35.9987 -0.0000 0.0000 -56.5897 21.7294 10.2811 4.0686 -7.1250 0.0000 -0.0000 -4.7049 40.9838 0.4672 -0.0000 -0.0000 0.0000 69.8165 -1.2930 35.8112 -49.9083 52.9584 -26.1009 0.0000 -0.0000 -14.0581 -21.2789 -26.7247 9.9341 7.1250 -0.0000 -0.0000 9.9054 -58.0884 -3.1927
0.00 0.00 0.00 194.1600 61.5866 206.8800 0.0000 0.0000 0.0000 -11.3248 -13.5264 -33.1253 11.9717 18.3786 65.8990 -1.1452 -18.6670 9.4521 0.0339 -1.1879 -3.2659 0.0000 0.0000 0.0000 20.0456 16.9428 -27.1136 -2.6469 -10.1002 29.3018 -0.1611 16.8953 -13.4005 -1.2229 7.0140 -19.7568 10.0945 1.4522 -1.6526 0.0551 2.6577 -8.3106 -5.7281 0.8131 -7.4971 -30.0432 -6.0382 -2.2324 34.6861 -9.6525 10.0436 17.9554 -4.3087 6.8927 0.0000 -0.0000 0.0000 -75.0211 5.4740 37.8644 62.3785 -56.9111 -36.3271 -0.0000 0.0000 -56.5609 20.8714 10.0709 3.8145 -7.1250 0.0000 -0.0000 -5.4285 40.6829 0.5798 0.0000 -0.0000 0.0000 69.8487 -1.4089 35.1798 -51.3718 53.5340 -27.2735 0.0000 -0.0000 -14.2322 -21.2423 -26.1162 9.7101 7.1250 -0.0000 -0.0000 9.6423 -57.4629 -2.9613
0.00 0.00 0.00 192.3170 55.2736 205.5190 0.0000 0.0000 0.0000 -10.3162 -11.5863 -41.5494 10.4735 17.6676 61.0594 -0.4471 -17.2500 -7.1956 1.7601 -8.3475 -23.7747 0.0000 0.0000 0.0000 21.9276 13.0743 -25.6016 -2.7557 -10.2886 29.9164 -0.7601 14.0445 -17.1963 -1.3547 7.3678 -20.8097 10.7390 1.5184 -0.4279 -0.0913 2.9129 -8.2524 -6.3087 0.8567 -8.0905 -29.7813 -6.6838 -2.8515 34.5759 -10.3133 9.4109 17.6700 -4.5665 7.0772 -0.0000 -0.0000 0.0000 -74.1292 3.9272 38.2628 63.3013 -57.1273 -37.1013 -0.0000 0.0000 -57.1717 20.6965 10.6591 3.9973 -7.1250 0.0000 -0.0000 -5.6712 41.2895 0.5209 -0.0000 -0.0000 0.0000 69.4778 -0.9398 34.7266 -53.6471 54.3646 -29.1133 0.0000 -0.0000 -14.6276 -21.1049 -26.0456 9.6187 7.1250 -0.0000 -0.0000 9.7551 -57.3612 -2.9724
0.00 0.00 0.00 189.0240 40.2594 202.0510 0.0000 0.0000 0.0000 -1.7678 -15.6843 -48.1266 1.9106 8.6773 24.7908 0.2160 2.9004 -10.3429 1.6625 -8.1245 -23.0927 0.0000 0.0000 0.0000 24.6121 3.4205 -5.8641 -1.1310 -6.7544 18.9898 -0.8227 3.4211 -16.3249 -4.4944 12.7907 -38.5901 10.8331 2.7231 -1.3509 -1.0189 4.5195 -8.7048 -7.3871 1.6735 -7.6881 -28.8572 -8.7188 -2.3321 35.8098 -13.1820 8.1430 17.6235 -5.8139 7.8421 -0.0000 0.0000 0.0000 -70.7727 1.3388 38.6895 62.0898 -56.8416 -36.0854 -0.0000 0.0000 -59.8655 22.0948 14.3088 5.7293 -7.1250 0.0000 -0.0000 -5.0397 45.3104 -0.0387 -0.0000 0.0000 0.0000 68.8108 5.4946 38.0066 -47.8701 52.0995 -24.4832 0.0000 -0.0000 -15.4545 -18.9850 -26.8477 8.8316 7.1250 -0.0000 -0.0000 12.4272 -57.7058 -3.9055
0.00 0.00 0.00 183.7140 32.8043 196.0490 0.0000 0.0000 0.0000 -13.8416 -13.9310 -43.3573 2.9488 10.6116 30.9810 -0.0672 -6.8864 -2.9555 0.9618 -6.2446 -17.4959 0.0000 0.0000 0.0000 19.8805 0.0683 -4.8961 -3.5979 -11.6052 34.3492 -0.0264 2.5550 -3.1691 -5.3277 13.7436 -42.2198 7.3997 1.8337 -3.0586 -1.4338 3.2512 -9.4816 -5.8169 1.3148 -7.8747 -28.7676 -9.2665 0.2120 36.2505 -14.5479 8.7480 17.7951 -6.5581 8.1223 -0.0000 -0.0000 0.0000 -71.1101 4.6170 40.0244 61.1670 -56.6130 -35.3138 -0.0000 0.0000 -60.3340 21.7674 15.3579 6.0370 -7.1250 0.0000 -0.0000 -5.5558 46.3795 -0.1897 -0.0000 -0.0000 0.0000 68.4698 1.9977 39.4604 -47.7807 52.0602 -24.4127 0.0000 -0.0000 -16.4154 -19.0134 -27.0143 8.8956 7.1250 -0.0000 -0.0000 12.4884 -57.8777 -3.9770
0.00 0.00 0.00 179.9980 33.0597 191.4330 0.0000 0.0000 0.0000 -20.3503 -11.9572 -35.8181 3.0499 10.7754 31.5262 0.0700 -8.1747 -7.0611 0.6823 -5.2813 -14.7125 0.0000 0.0000 0.0000 13.8205 4.2152 -11.3180 -7.8639 -16.0182 52.0709 -0.1417 7.4194 13.2705 -3.4422 11.3786 -33.5677 4.1974 2.5837 -2.4317 -2.0210 4.0984 -8.9414 -4.6696 1.9292 -7.6034 -28.8660 -9.5146 0.8457 36.0767 -14.9619 8.5514 17.6380 -6.8061 8.0855 -0.0000 -0.0000 0.0000 -71.3698 5.4225 40.2801 61.2708 -56.6392 -35.4005 -0.0000 0.0000 -60.6705 21.7457 14.8280 5.8285 -7.1250 0.0000 -0.0000 -5.4659 45.8162 -0.1104 -0.0000 -0.0000 0.0000 68.0305 1.6922 40.0208 -46.9233 51.6766 -23.7382 0.0000 -0.0000 -16.9288 -17.5378 -26.6143 8.0580 7.1250 -0.0000 -0.0000 13.8242 -57.1634 -4.1734
0.00 0.00 0.00 354.6710 -45.3355 16.9614 0.0000 0.0000 0.0000 -28.1235 -10.1141 -3.8400 2.5555 9.9381 28.7764 -1.7037 -25.7594 23.7704 4.4429 12.7276 38.3571 0.0000 0.0000 0.0000 13.2905 31.2188 -37.1352 -1.8993 -8.6531 24.7161 2.2804 26.2078 3.9024 -0.6174 5.0287 -13.9904 2.2050 -0.8380 -2.9641 -0.8490 -1.3177 -9.2078 -2.0601 -0.9291 -8.0574 -31.0596 -9.6244 10.5935 37.8382 -18.8928 1.0093 18.2627 -10.7755 5.8946 -0.0000 0.0000 0.0000 -73.6488 6.0431 39.8834 57.1245 -55.4937 -31.9598 -0.0000 0.0000 -54.0796 24.1036 10.2829 4.5662 -7.1250 0.0000 -0.0000 -2.6074 41.2071 0.2441 -0.0000 0.0000 0.0000 74.0196 -4.3640 32.2648 -48.3131 52.2921 -24.8332 0.0000 -0.0000 -13.2664 -17.2799 -27.3897 8.1443 7.1250 -0.0000 -0.0000 14.5375 -57.8691 -4.6437
0.00 0.00 0.00 353.1640 -39.1285 16.7129 0.0000 0.0000 0.0000 -24.5819 -7.2673 -5.0591 3.8764 11.9941 35.7112 2.4613 -13.8546 37.1187 6.2708 14.6858 46.0592 0.0000 0.0000 0.0000 15.1248 30.4704 -34.9072 -2.9056 -10.5406 30.7458 1.3847 21.7659 -0.3197 -0.7481 5.5245 -15.4109 6.1040 -0.3573 -2.7829 -0.5987 -0.5448 -9.2263 -4.0133 -0.8182 -8.2386 -31.0412 -9.7971 9.8885 37.0060 -18.8001 1.3507 17.7606 -10.5795 5.9502 -0.0000 -0.0000 0.0000 -74.3669 7.5222 39.3096 56.5142 -55.3072 -31.4574 -0.0000 0.0000 -52.9223 24.6121 9.5169 4.3313 -7.1250 0.0000 -0.0000 -2.0754 40.4192 0.2345 -0.0000 -0.0000 0.0000 75.2531 -5.2364 31.6679 -46.6661 51.5591 -23.5366 0.0000 -0.0000 -11.8828 -17.3461 -26.7273 7.9964 7.1250 -0.0000 -0.0000 14.0877 -57.2337 -4.2791
